PathFileType	4	(X/Y/Z)	C:\Users\chris\Documents\GitHub\baseballds\vids\pitch5_Sports2D\pitch5_Sports2D_px_person01.trc
DataRate	CameraRate	NumFrames	NumMarkers	Units	OrigDataRate	OrigDataStartFrame	OrigNumFrames
30	30	13	22	m	30	37	149
Frame#	Time	Hip			RHip			RKnee			RAnkle			RBigToe			RSmallToe			RHeel			LHip			LKnee			LAnkle			LBigToe			LSmallToe			LHeel			Neck			Head			Nose			RShoulder			RElbow			RWrist			LShoulder			LElbow			LWrist		
		X1	Y1	Z1	X2	Y2	Z2	X3	Y3	Z3	X4	Y4	Z4	X5	Y5	Z5	X6	Y6	Z6	X7	Y7	Z7	X8	Y8	Z8	X9	Y9	Z9	X10	Y10	Z10	X11	Y11	Z11	X12	Y12	Z12	X13	Y13	Z13	X14	Y14	Z14	X15	Y15	Z15	X16	Y16	Z16	X17	Y17	Z17	X18	Y18	Z18	X19	Y19	Z19	X20	Y20	Z20	X21	Y21	Z21	X22	Y22	Z22
37	1.2333333333333334	415.1064893491557	553.3434677443606	0.0	391.95043089739295	557.1333481353805	0.0	376.26498925028125	655.8136503998315	0.0	365.6689185456506	748.3081203220427	0.0	384.07753683134763	779.2987490073195	0.0	366.2245504282454	780.7219871343782	0.0	359.17919423447773	761.726567045908	0.0	439.141788510745	556.1076865630489	0.0	440.890956715628	651.7367870026061	0.0	441.23161770357274	734.1124206719469	0.0	489.6075209123909	755.8253093733861	0.0	485.83460573634045	750.6097848110428	0.0	433.0433987445909	751.7153971996432	0.0	413.6582023829779	397.47471000358865	0.0	443.2665318787084	337.44941088884883	0.0	455.3210160205409	378.7447409876437	0.0	368.5892712532884	412.8317189085334	0.0	345.7783105102402	484.05618073361535	0.0	361.10275377098526	540.8184134206524	0.0	439.5714175597102	417.26206379993135	0.0	437.0614822710144	478.40172429078984	0.0	400.12446586187224	522.0648676565534	0.0
38	1.2666666666666666	415.4957418335024	553.6787941694508	0.0	392.52252775298024	557.4815781818861	0.0	376.69817652526086	655.676625025544	0.0	366.21076362364437	748.9979553112173	0.0	384.7880919519831	779.5982220564143	0.0	367.3387618169839	781.0289194444938	0.0	359.61127952588953	762.4706278333508	0.0	439.2429705970156	556.1677233859	0.0	441.1332698665265	651.8883396227274	0.0	441.7912336357168	734.6936947518349	0.0	489.3845050530142	755.9683902743683	0.0	485.44567454094476	750.624855221082	0.0	433.5091478467808	752.184360040724	0.0	413.79940947219905	398.21524367478133	0.0	444.3926419352152	337.87418533317134	0.0	454.99328471251965	380.1905210392599	0.0	369.0089545115019	413.48439413470936	0.0	345.9693046876375	484.95751848700894	0.0	361.6596718958376	541.1058651571234	0.0	439.3984507363395	417.1180681791898	0.0	437.69743326266297	477.3713306970277	0.0	399.90049721733624	521.7197422067219	0.0
39	1.3	416.210895945386	553.6221059613542	0.0	393.25364042467186	557.0193114419818	0.0	376.95811291965265	655.6306971543938	0.0	366.46874805449295	748.942280731419	0.0	384.84109532330564	779.5049949996517	0.0	367.5728619251424	780.9227118259923	0.0	359.95145566586183	762.3620559477662	0.0	439.36528179406935	555.9941094050045	0.0	441.62340869079395	651.9757766379641	0.0	442.41714628763094	735.6484434599903	0.0	489.4485447128516	756.2869107958545	0.0	485.64578904844507	751.195007292627	0.0	433.74748663197346	753.1677946163326	0.0	413.89267568661285	398.83562819019835	0.0	445.26744817333497	338.0557218378657	0.0	454.64224284105086	381.4387608822483	0.0	369.5227986943754	414.2591884315083	0.0	346.17235097114917	485.1388491893124	0.0	361.8311590889682	540.5239896030748	0.0	439.237755881182	416.8204688279689	0.0	437.9268711500067	476.453425340499	0.0	401.46840885665205	520.3325210454461	0.0
40	1.3333333333333333	416.9519104118705	553.6217152147574	0.0	393.83275833349524	556.8009950088026	0.0	377.2491446995064	655.9826017308645	0.0	366.7396874321111	748.6461579607832	0.0	384.58582705679487	779.4788264842064	0.0	367.3438724894708	780.7755277932881	0.0	360.31255297917454	761.9977726696494	0.0	439.8699573588738	556.36662492832	0.0	442.2536477742319	652.2582380822005	0.0	442.93588279126766	736.2266436636668	0.0	489.89181926743413	756.4133790362788	0.0	486.37572628597394	751.8644662407994	0.0	434.0474256597968	753.7813296143421	0.0	414.1598751198006	398.88825725663554	0.0	445.5259294686898	338.2863283480199	0.0	455.07498544812023	381.65767582853994	0.0	369.87519502641925	414.89952433978	0.0	346.6801911567371	485.27190906410937	0.0	362.0172693236715	540.2391409586564	0.0	439.5428742096022	416.7265004978274	0.0	437.9637410456602	476.38643833789627	0.0	402.838495589798	519.9585138075217	0.0
41	1.3666666666666667	417.53330418820775	554.2030112695078	0.0	394.03670857957565	557.4576630219474	0.0	377.9098566277555	656.5840313422127	0.0	367.19787171833343	748.8946416809988	0.0	384.8673833522596	779.7069989505349	0.0	367.66567372971446	780.735109602616	0.0	360.6473666025166	762.2523630561686	0.0	440.76542785893486	557.44819545986	0.0	442.9465712894617	652.9928495543173	0.0	443.3170656780448	736.049948920326	0.0	490.2137612048923	756.3230756299181	0.0	486.8383226661688	752.1164225117991	0.0	434.69128264009396	753.5863451728871	0.0	414.63326950300154	398.5344632995233	0.0	445.70455009617154	338.78434159909466	0.0	456.20013214048805	381.414343376116	0.0	369.92168508228684	415.4381419521293	0.0	347.44038711220537	486.2764797356958	0.0	362.6926431268854	540.8656956332879	0.0	440.4189120161774	416.9861430917242	0.0	438.49752658069167	477.05995720031893	0.0	402.1301540481999	521.2774506860871	0.0
42	1.4	418.0389949412495	554.8916913932907	0.0	394.12897091711756	558.1899881204918	0.0	378.732332425704	656.9578576266796	0.0	367.56843681655715	749.4771281466253	0.0	385.81174396004235	780.163962414017	0.0	368.28965939715056	781.0237917888355	0.0	360.9138768361035	762.8773108993489	0.0	441.50995898323777	558.3032899213426	0.0	443.5517103997181	653.6742673324301	0.0	443.62348359326404	735.8076733941784	0.0	490.5802587294247	756.8141091379722	0.0	487.07483126381175	752.459026836665	0.0	435.23301725299126	753.1891705721181	0.0	415.3162733044768	398.460139679368	0.0	446.268729704975	339.1180982835708	0.0	457.43007739995346	381.3390466760143	0.0	370.29301022660604	415.598311631901	0.0	348.175653655365	487.11065389541295	0.0	363.38498429437584	541.5494409430208	0.0	441.3622364540629	417.6130034959783	0.0	438.7894182856666	478.21845219653	0.0	400.89220464090465	522.821280855694	0.0
43	1.4333333333333333	418.4789016985414	555.1074246459087	0.0	394.49997995058004	558.4595870071441	0.0	379.268503473627	657.0600380526276	0.0	367.70193878125895	749.8401339232637	0.0	386.7547210447532	780.8730565316259	0.0	368.4573939913382	781.7755869864926	0.0	361.27278333742913	763.3676821950685	0.0	441.72807120354224	558.5229820289452	0.0	443.9065300534668	653.8137071319982	0.0	443.85822043502856	736.0493191433856	0.0	491.33898532980515	758.0357510623159	0.0	487.5955301613813	753.2903045842514	0.0	435.2285922737542	753.271857334058	0.0	416.1542399706555	398.9551431613787	0.0	447.122660667808	339.1450683204022	0.0	458.34102757040364	381.52014785065114	0.0	371.51017882490754	415.20992460092634	0.0	348.85495529485337	486.5285777653006	0.0	363.60928330087063	541.4893261202374	0.0	441.9785117339516	418.3885797284871	0.0	438.2062549492004	479.42385872809484	0.0	401.28391735798715	523.3173615080227	0.0
44	1.4666666666666666	418.7641137991863	555.2244744740689	0.0	395.13762088802434	559.0169818504374	0.0	379.57706637789073	657.4023954123645	0.0	367.93132694192644	750.1451862311054	0.0	387.2851492152077	781.6312087313179	0.0	368.6446016957317	782.5184283107661	0.0	361.8754489759538	763.9390009530392	0.0	441.7602967641541	558.8932362843602	0.0	444.11674330447187	654.0805849380768	0.0	444.04764220466416	736.5183231272047	0.0	491.9023304462772	758.9508709783348	0.0	488.21431107741057	754.004187870134	0.0	435.1959594052074	753.9233968706017	0.0	416.9192693754297	399.56408757555437	0.0	447.8457698110437	339.49435048501715	0.0	458.87356699344707	382.12654149418745	0.0	373.05272870830566	415.088340761911	0.0	349.58773213147026	485.60798296343336	0.0	363.78169343120226	541.487379533627	0.0	442.4916539913571	419.0368248418173	0.0	438.0259867135008	480.0297487150437	0.0	402.75433941941674	523.315533911995	0.0
45	1.5	418.9766198622264	555.8302505761528	0.0	395.7994446492547	560.4126642179416	0.0	380.0528318520693	658.3866414817423	0.0	368.52568922635294	750.782189737813	0.0	387.60539744133	782.0460148281938	0.0	369.58655560429554	782.8741472753364	0.0	362.53599291275066	764.6552483543256	0.0	442.22354331006574	560.0181937735649	0.0	444.4482759771496	655.3745545291091	0.0	444.3736692674687	736.9720650937303	0.0	491.8382128932436	758.9270169875755	0.0	488.51006612830247	754.1605980278578	0.0	435.7827893356589	754.7555978279757	0.0	417.4885178483921	399.79676918850674	0.0	448.115826523257	340.5376757316182	0.0	459.2702223876856	383.1761513325554	0.0	373.9867816074765	416.0789729166434	0.0	350.37082531632313	486.0974659048734	0.0	364.37857777782926	542.529570406784	0.0	443.0839318983038	419.60280790327727	0.0	439.12552299280577	480.223043003428	0.0	403.66849518114043	524.093594946878	0.0
46	1.5333333333333332	419.31820849228615	556.6449354872321	0.0	396.44157064752983	561.4471894715023	0.0	380.67686707494875	659.5264541265277	0.0	369.2735089918242	751.5264072979587	0.0	387.9279151766913	782.0241210690912	0.0	370.5654070458735	783.1282789672628	0.0	363.0481941452437	765.0398892112541	0.0	443.0089692457646	561.0352944949713	0.0	445.0160169806986	656.9850285667345	0.0	445.0814718089683	737.5748728407264	0.0	491.88573081871544	758.7059925052795	0.0	488.75762729273214	754.3501939392572	0.0	436.65723840806726	755.2586820636946	0.0	418.1832152556228	399.8426041680492	0.0	448.2735610369716	341.5833597699269	0.0	459.8430392454949	383.63812755731414	0.0	374.1162381502806	417.57873510443915	0.0	351.0521200672943	487.55389491756546	0.0	365.1870049126809	543.8145272471385	0.0	443.4977900874352	420.25411276606155	0.0	439.96361227271024	480.770535618174	0.0	403.40350988021316	525.6636829533425	0.0
47	1.5666666666666667	419.85814435736324	557.0271007983536	0.0	397.1289481739419	561.0872833533033	0.0	381.1445365440061	659.980477379353	0.0	369.89043009102716	751.7805114314514	0.0	388.22921445086854	781.8667648291305	0.0	370.7263238368546	783.5291813821168	0.0	363.5309548882265	764.965600438651	0.0	443.5044176120802	561.0061733282752	0.0	445.68797952269387	657.4579558050523	0.0	446.1757010570095	738.2680679194972	0.0	492.6188704629908	759.1807351251263	0.0	489.460155650823	755.0288141469148	0.0	437.2108131614662	755.3088643123166	0.0	419.28162798644325	400.0622342070533	0.0	448.9089935433327	341.84361140873204	0.0	460.7434026762908	382.85137788302586	0.0	374.1725098466966	418.3198528628079	0.0	351.5069080742299	488.3912525891381	0.0	365.841677893972	544.3321864752745	0.0	443.60335901064343	420.83413462436584	0.0	439.214687406842	481.53704444853884	0.0	402.6419720070195	526.9173110899416	0.0
48	1.6	420.5229236999143	557.1286757813783	0.0	397.80409104678233	560.8537969324999	0.0	381.511496574603	659.9657180472489	0.0	370.45856454456333	751.5071514392664	0.0	388.5310925130864	781.9085709957345	0.0	370.66389582780107	783.8829274658541	0.0	364.0886338865623	764.8144846575829	0.0	443.8317433671167	560.9168568617367	0.0	446.235266826	657.1089263895282	0.0	447.14873396924077	738.6469948516956	0.0	493.41881998538946	759.9819131751872	0.0	490.257555041924	755.5262836966674	0.0	437.5400102429164	755.3204866608174	0.0	420.38505630546393	400.3444862810818	0.0	449.7987232542013	341.8060831380981	0.0	461.7950762746705	382.55096506456164	0.0	374.8939479004571	418.18195870492787	0.0	351.97849647747665	488.3858505726019	0.0	366.40233753778926	544.6837984329484	0.0	443.8337024080568	421.06413120802176	0.0	438.7378048072133	481.7566219961392	0.0	403.22724397865716	527.1795855328523	0.0
49	1.6333333333333333	421.21244432409566	557.573147015245	0.0	398.40136063709303	562.3209896258844	0.0	381.93063416505146	660.4078308827143	0.0	371.158983615754	751.3814732884264	0.0	389.02512594505265	782.380813585944	0.0	371.1085058338306	784.1956709921176	0.0	364.66500442515843	764.9230924034698	0.0	444.5557028287546	562.1626655768673	0.0	446.66335619016695	657.4209000039608	0.0	447.5359147642139	738.6803269206011	0.0	493.70808324674704	760.3833377370876	0.0	490.5426837840904	755.3463059805852	0.0	438.0087448217892	755.7451040706821	0.0	420.97950992129427	400.6081916822833	0.0	450.36590405727094	342.3902568113947	0.0	462.5881825297751	384.28936740130257	0.0	376.11282648917495	418.1823767522034	0.0	352.73737565926825	488.4476147215453	0.0	366.9839411529452	545.5277044533523	0.0	444.5046435875693	421.0665564495219	0.0	440.3151591733618	481.5348936535463	0.0	405.7732751809911	526.9596455556184	0.0
